<?xml version="1.0" encoding="utf-8"?>
<!-- Generator: Adobe Illustrator 25.0.0, SVG Export Plug-In . SVG Version: 6.00 Build 0)  -->
<svg version="1.1" id="Layer_1" xmlns="http://www.w3.org/2000/svg" xmlns:xlink="http://www.w3.org/1999/xlink" x="0px" y="0px"
	 viewBox="0 0 512 322.2" style="enable-background:new 0 0 512 322.2;" xml:space="preserve">
<style type="text/css">
	.st0{fill:#F1DA3C;}
</style>
<ellipse transform="matrix(0.7315 -0.6819 0.6819 0.7315 -128.6965 199.3378)" class="st0" cx="188.7" cy="263.1" rx="39.5" ry="34.3"/>
<ellipse transform="matrix(0.7315 -0.6819 0.6819 0.7315 -72.064 343.1758)" class="st0" cx="399.7" cy="263.1" rx="39.5" ry="34.3"/>
<path class="st0" d="M28.2,89.6L28.2,89.6c9.2,0,16.7,7.5,16.7,16.7v0c0,9.2-7.5,16.7-16.7,16.7l0,0c-9.2,0-16.7-7.5-16.7-16.7v0
	C11.5,97.1,19,89.6,28.2,89.6z"/>
<path class="st0" d="M344.3,259.6c5.9-29.3,33.6-52.5,63.3-52.5c28.6,0,49.2,21.6,48.7,49.3c30.9,0.8,39.6-39.9,39.6-39.9
	c2.6-11.4,6.5-33.6,9.8-55.4c1.1-6.7,0.2-13.6-2.4-19.9c-8.1-18.9-17.9-37-29.2-54.1c-10.7-16-28.7-25.5-49.3-25.8
	c-12.3-0.2-24.3-0.3-33.4-0.3l-0.1-0.1c-1.2-19.6-15.5-34.6-35.5-36.4c-13-1.2-64.7-2-89.5-2c-9.9,0-24,0.1-38.3,0.4v-0.1h-0.1l0,0
	l0,0h-172c-9.2,0-16.7,7.4-16.7,16.6c0,0,0,0,0,0v0.1c0,9.2,7.4,16.6,16.6,16.6h34.7l0,0c8.7,0.6,15.4,7.8,15.4,16.5v0.1
	c0,9.2-7.4,16.7-16.6,16.7c0,0,0,0,0,0H71.4c-9.2,0-16.7,7.5-16.7,16.7c0,0,0,0,0,0l0,0c0,9.2,7.4,16.7,16.6,16.7c0,0,0,0,0,0h17.8
	c9.2,0,16.7,7.5,16.7,16.7l0,0l0,0c0,9.2-7.5,16.7-16.7,16.7l0,0H22.7c-9.2,0-16.7,7.5-16.7,16.7l0,0c0,9.2,7.5,16.7,16.7,16.7h66.5
	c9.2,0,16.7,7.5,16.7,16.7l0,0c0,9.2-7.5,16.6-16.7,16.6H68.6c-9.2,0-16.7,7.5-16.7,16.7l0,0l0,0c0,9.2,7.5,16.7,16.7,16.7l65.6,0
	l5.5-13.6l0,0c11.2-20.6,33.4-35.2,56.9-35.2c29.7,0,50.8,23.3,48.5,52.6L344.3,259.6 M179,97.1h-22.4c0,0-0.1,0-0.1,0.1l-2.1,14.6
	c0,0,0,0.1,0.1,0.1c0,0,0,0,0,0h16.6c3-0.1,5.6,2.3,5.6,5.3c0,0.4,0,0.8-0.1,1.1c-0.6,3.6-3.7,6.4-7.4,6.5h-16.7c0,0-0.1,0-0.1,0.1
	l-3,21.3c-0.6,3.6-3.7,6.4-7.4,6.5c-3,0.1-5.6-2.3-5.6-5.3c0-0.4,0-0.8,0.1-1.1l7.7-55.1c0.6-3.9,3.9-6.7,7.8-6.8h28.5
	c3-0.1,5.6,2.3,5.6,5.3c0,0.4,0,0.8-0.1,1.1C185.8,94.3,182.7,97,179,97.1z M238.8,88.6c2.3,2.1,4,4.8,4.7,7.8
	c0.8,3.4,0.9,7,0.4,10.4c-0.7,5.4-2.9,10.5-6.4,14.7c-2.1,2.5-4.8,4.5-7.9,5.7c0,0,0,0.1,0,0.1l5.5,16c1.5,4.3-2.3,9.3-7.1,9.3h-0.3
	c-2.4,0.1-4.5-1.4-5.3-3.6l-6.7-19.5c0,0-0.1,0-0.1,0h-14.2c0,0-0.1,0-0.1,0.1l-2.3,16.7c-0.6,3.6-3.7,6.4-7.4,6.5
	c-3,0.1-5.6-2.3-5.6-5.3c0-0.4,0-0.8,0.1-1.1l7.7-55.1c0.6-3.9,3.9-6.7,7.8-6.8h22C223.6,84.2,233.3,83.9,238.8,88.6z M299.4,90.2
	c-0.5,3.4-3.4,5.9-6.9,6h-25.6c0,0-0.1,0-0.1,0.1l-2,14.5c0,0,0,0.1,0.1,0.1c0,0,0,0,0,0h19.9c2.8-0.1,5.2,2.1,5.3,5
	c0,0.4,0,0.7-0.1,1.1c-0.5,3.4-3.4,5.9-6.9,6h-19.9c0,0-0.1,0-0.1,0.1l-2.4,17.4c0,0.1,0,0.1,0.1,0.1h25.6c2.8-0.1,5.2,2.1,5.3,5
	c0,0.4,0,0.7-0.1,1.1l0,0c-0.5,3.4-3.4,5.9-6.9,6h-31.8c-3.2,0-5.9-2.5-5.9-5.8c0-0.4,0-0.7,0.1-1.1l7.7-54.7
	c0.6-3.9,3.9-6.7,7.8-6.8h31.8c2.8-0.1,5.2,2.2,5.2,5C299.5,89.5,299.5,89.9,299.4,90.2L299.4,90.2z M352.7,90.2
	c-0.5,3.4-3.4,5.9-6.9,6h-25.6c0,0-0.1,0-0.1,0.1l-2,14.5c0,0,0,0.1,0.1,0.1c0,0,0,0,0,0h19.9c2.8-0.1,5.2,2.1,5.3,5
	c0,0.4,0,0.7-0.1,1.1c-0.5,3.4-3.4,5.9-6.9,6h-19.9c0,0-0.1,0-0.1,0.1l-2.4,17.4c0,0.1,0,0.1,0.1,0.1h25.6c2.8-0.1,5.2,2.1,5.3,5
	c0,0.4,0,0.7-0.1,1.1l0,0c-0.5,3.4-3.4,5.9-6.9,6h-31.8c-3.2,0-5.9-2.5-5.9-5.8c0-0.4,0-0.7,0.1-1.1L308,91c0.6-3.9,3.9-6.7,7.8-6.8
	h31.8c2.8-0.1,5.2,2.2,5.2,5C352.8,89.5,352.8,89.9,352.7,90.2L352.7,90.2z M389.8,83.9c8.7,0,20,0.1,31.3,0.3
	c13.7,0.2,25.7,6.5,32.9,17.3c7.7,11.6,14.6,23.7,20.7,36.2c3.2,6.6-2.7,15.1-10.5,15.1h-83.2L389.8,83.9z"/>
<path class="st0" d="M218.4,117.3H203l2.9-21.1h15.4c0,0,11.3-0.7,9.5,10.6C230.8,106.8,229.5,117.3,218.4,117.3z"/>
</svg>
